<svg xmlns="http://www.w3.org/2000/svg" xmlns:xlink="http://www.w3.org/1999/xlink" width="500" zoomAndPan="magnify" viewBox="0 0 375 374.999991" height="500" preserveAspectRatio="xMidYMid meet" version="1.0"><defs><g/></defs><g fill="#ffffff" fill-opacity="1"><g transform="translate(52.710939, 335.999978)"><g><path d="M 167.125 0 L 36.078125 0 C 30.828125 0 27.023438 -1.171875 24.671875 -3.515625 C 22.328125 -5.867188 21.15625 -9.675781 21.15625 -14.9375 L 21.15625 -63.453125 C 21.15625 -68.703125 22.328125 -72.5 24.671875 -74.84375 C 27.023438 -77.195312 30.828125 -78.375 36.078125 -78.375 L 147.640625 -78.375 C 151.234375 -78.375 153.925781 -79.550781 155.71875 -81.90625 C 157.519531 -84.257812 158.421875 -87.09375 158.421875 -90.40625 C 158.421875 -95.101562 157.519531 -98.554688 155.71875 -100.765625 C 153.925781 -102.984375 151.234375 -104.234375 147.640625 -104.515625 L 85.4375 -113.21875 C 66.082031 -115.976562 50.53125 -122.332031 38.78125 -132.28125 C 27.03125 -142.238281 21.15625 -158.832031 21.15625 -182.0625 L 21.15625 -225.609375 C 21.15625 -249.109375 28.753906 -267.144531 43.953125 -279.71875 C 59.160156 -292.300781 80.175781 -298.59375 107 -298.59375 L 223.125 -298.59375 C 228.375 -298.59375 232.171875 -297.414062 234.515625 -295.0625 C 236.867188 -292.71875 238.046875 -288.921875 238.046875 -283.671875 L 238.046875 -234.3125 C 238.046875 -229.0625 236.867188 -225.257812 234.515625 -222.90625 C 232.171875 -220.5625 228.375 -219.390625 223.125 -219.390625 L 126.484375 -219.390625 C 122.890625 -219.390625 120.125 -218.210938 118.1875 -215.859375 C 116.257812 -213.515625 115.296875 -210.539062 115.296875 -206.9375 C 115.296875 -203.34375 116.257812 -200.300781 118.1875 -197.8125 C 120.125 -195.332031 122.890625 -193.953125 126.484375 -193.671875 L 188.28125 -185.375 C 207.632812 -182.613281 223.253906 -176.253906 235.140625 -166.296875 C 247.035156 -156.347656 252.984375 -139.757812 252.984375 -116.53125 L 252.984375 -72.984375 C 252.984375 -49.484375 245.304688 -31.441406 229.953125 -18.859375 C 214.609375 -6.285156 193.664062 0 167.125 0 Z M 167.125 0 "/></g></g></g></svg>